/* XPM */
static char * auto_configure_CPU_core_voltage_settings16x16_xpm[] = {
"16 16 7 1",
" 	c None",
".	c #FFFFFF",
"+	c #000000",
"@	c #FF0000",
"#	c #F3F3F3",
"$	c #636363",
"%	c #FCFCFC",
"................",
"......++++++....",
".....++@@@@@+...",
"..++++@@@@@@@+++",
".+@@@@@@@@@@@@@+",
"++++++++++++++++",
"...++.......++..",
"...........#....",
"................",
"................",
".$$..........$$.",
"$$$$%.......$$$$",
"..$$$$$$$$$$$$..",
"..$$$$$$$$$$$$..",
"$$$$........$$$$",
".$$..........$$."};
