/* XPM */
static char * cancel16x16_xpm[] = {
"16 16 3 1",
" 	c None",
".	c #EF1919",
"+	c #FFFFFF",
"...++++++++++...",
"....++++++++....",
".....++++++.....",
"+.....++++.....+",
"++.....++.....++",
"+++..........+++",
"++++........++++",
"+++++......+++++",
"+++++......+++++",
"++++........++++",
"+++..........+++",
"++.....++.....++",
"+.....++++.....+",
".....++++++.....",
"....++++++++....",
"...++++++++++..."};
