/* XPM */
static char * decrease16x16_xpm[] = 
//avoid g++ warning: deprecated conversion from string constant to 'char*'
//(char * [] ) 
{
(char *) "16 16 2 1",
(char *) " 	c #FFFFFF",
(char *) ".	c #000000",
(char *) "                ",
(char *) "                ",
(char *) "                ",
(char *) "                ",
(char *) "                ",
(char *) "                ",
(char *) "                ",
(char *) "................",
(char *) "................",
(char *) "                ",
(char *) "                ",
(char *) "                ",
(char *) "                ",
(char *) "                ",
(char *) "                ",
(char *) "                "};
