/* XPM */
static char * increase16x16_xpm[] = 
//avoid g++ warning: deprecated conversion from string constant to 'char*'
//(char * [] ) 
{
"16 16 2 1",
" 	c #FFFFFF",
".	c #000000",
"       ..       ",
"       ..       ",
"       ..       ",
"       ..       ",
"       ..       ",
"       ..       ",
"       ..       ",
"................",
"................",
"       ..       ",
"       ..       ",
"       ..       ",
"       ..       ",
"       ..       ",
"       ..       ",
"       ..       "};
