/* XPM */
static char * pause_service16x16_xpm[] = {
"16 16 6 1",
" 	c None",
".	c #FFFFFF",
"+	c #000000",
"@	c #FF6700",
"#	c #3E3E3E",
"$	c #0018FF",
"..............++",
"..............@+",
".............@@+",
"..............@+",
".++.++........+.",
".++.++.......+++",
".++.++.####..+++",
".++.++...+...+++",
".++.++....++++++",
".++.++.......+++",
".............+++",
".............+.+",
".............+.+",
".............+.+",
".............+.+",
"............$$$$"};
