/* XPM */
static char * prevent_voltage_above_default_voltage16x16_xpm[] = {
"16 16 4 1",
" 	c #FF0000",
".	c #FFFFFF",
"+	c #0C00FF",
"@	c #000000",
" ......+......  ",
"  .....+.....  .",
".  ..+++++..  ..",
"..  ...+...  ...",
"@@@  @@+@@  @@@@",
"....  ...  .....",
".....  .  ......",
"......   .......",
"@@@@@@   @@@@@@@",
".....  .  ......",
"....  ...  .....",
"...  .....  ....",
"@@  @@@@@@@  @@@",
".  .........  ..",
"  ...........  .",
" .............  "};
