/* XPM */
static char * select_pstate_via_mouse_position16x16_xpm[] = {
"16 16 3 1",
" 	c None",
".	c #FFFFFF",
"+	c #000000",
".....++++++.....",
"...++..++..++...",
"..+....++....+..",
".+.....++.....+.",
".+.....++.....+.",
"+......++......+",
"+......++......+",
"++++++++++++++++",
"++++++++++++++++",
"+......++......+",
"+......++......+",
".+.....++.....+.",
".+.....++.....+.",
"..+....++....+..",
"...++..++..++...",
".....++++++....."};
