/* XPM */
static char * set_as_desired_voltage16x16_xpm[] = {
"16 16 4 1",
" 	c None",
".	c #FFFFFF",
"+	c #000000",
"@	c #0C00FF",
"................",
"................",
"................",
"................",
"++++++++++++++++",
"................",
".......@........",
".......@........",
"+++++@@@@@++++++",
".......@........",
".......@........",
"................",
"++++++++++++++++",
"................",
"................",
"................"};
