/* XPM */
static char * stabilize_voltage_xpm[] = {
"42 30 3 1",
" 	c #000000",
".	c #FFFFFF",
"+	c #3F48CC",
"   ...................................   .",
"   ...................................   .",
"   ...................................   .",
"    ..............+++++..............    .",
".   .............+++++++.............   ..",
".   ............+++++++++............   ..",
"..   ..........+++++++++++..........   ...",
"..    .........+++++++++++.........    ...",
"...    ........+++++++++++........    ....",
"...     .......+++++++++++.......     ....",
"....     ......+++++++++++......     .....",
".....     ......+++++++++......     ......",
".......      ....+++++++....      ........",
"........       ...+++++...       .........",
"..........                     ...........",
"............                 .............",
"................         .................",
"..........................................",
"..........................................",
"..........................................",
"..........................................",
"..........................................",
"..........................................",
"..........................................",
"..........................................",
"..........................................",
"..........................................",
"..........................................",
"..........................................",
".........................................."};
