/* XPM */
static char * standby16x16_xpm[] = {
"16 16 4 1",
" 	c None",
".	c #FFFFFF",
"+	c #000000",
"@	c #636363",
".......++.......",
"....+..++..+....",
"...+@..++..@+...",
"..+@...++...@+..",
".+@....++....@+.",
".+@..........@+.",
"+@............@+",
"+@............@+",
"+@............@+",
"+@............@+",
".+@..........@+.",
".+@..........@+.",
"..+@........@+..",
"...+@@....@@+...",
"....++@@@@++....",
"......++++......"};
