/* XPM */
static char * stop_finding_lowest_stable_CPU_core_voltage16x16_xpm[] = {
"16 16 57 1",
" 	c None",
".	c #FFFFFF",
"+	c #000000",
"@	c #FAFAFA",
"#	c #DDDDDD",
"$	c #A6A6A6",
"%	c #777777",
"&	c #909090",
"*	c #CECECE",
"=	c #F3F3F3",
"-	c #EAEAEA",
";	c #292929",
">	c #252525",
",	c #1D1D1D",
"'	c #212121",
")	c #272727",
"!	c #626262",
"~	c #CFCFCF",
"{	c #E2E2E2",
"]	c #6D6D6D",
"^	c #5F5F5F",
"/	c #C5C5C5",
"(	c #D1D1D1",
"_	c #868686",
":	c #2A2A2A",
"<	c #484848",
"[	c #C9C9C9",
"}	c #F0F0F0",
"|	c #262626",
"1	c #A7A7A7",
"2	c #FDFDFD",
"3	c #CCCCCC",
"4	c #5C5C5C",
"5	c #404040",
"6	c #C0C0C0",
"7	c #ACACAC",
"8	c #0C0C0C",
"9	c #888888",
"0	c #FCFCFC",
"a	c #C1C1C1",
"b	c #6E6E6E",
"c	c #6C6C6C",
"d	c #6F6F6F",
"e	c #F1F1F1",
"f	c #FEFEFE",
"g	c #8F8F8F",
"h	c #1F1F1F",
"i	c #B6B6B6",
"j	c #303030",
"k	c #434343",
"l	c #808080",
"m	c #8D8D8D",
"n	c #2B2B2B",
"o	c #767676",
"p	c #2D2D2D",
"q	c #424242",
"r	c #DEDEDE",
"................",
"......+++.......",
"......+++.......",
"..+...+++.......",
"..+.............",
"+++++.....+++++.",
"..+.@...........",
"..+..#$%%&*=....",
"...-&;>,,')!~...",
"..{],^/##(_:<[..",
".}^|1=....23456.",
".7890.......a|b.",
".cde........fghi",
"ij...........ekl",
"mn............op",
" q............r "};
